HIERARCHY
ROOT hip
{
  OFFSET 5.70873 43.8894 -1.52928
  CHANNELS 6 Xposition Yposition Zposition Zrotation Xrotation Yrotation
  JOINT abdomen
  {
    OFFSET 0 5.99393 0.287273
    CHANNELS 6 Xposition Yposition Zposition Zrotation Xrotation Yrotation
    JOINT chest
    {
      OFFSET 0 6.65865 -0.856112
      CHANNELS 6 Xposition Yposition Zposition Zrotation Xrotation Yrotation
      JOINT neck
      {
        OFFSET 0 8.65624 -1.42685
        CHANNELS 6 Xposition Yposition Zposition Zrotation Xrotation Yrotation
        JOINT head
        {
          OFFSET 0 3.80999 -0.190247
          CHANNELS 6 Xposition Yposition Zposition Zrotation Xrotation Yrotation
          End Site
          {
            OFFSET 0 0 0
          }
        }
      }
      JOINT rCollar
      {
        OFFSET -1.4963 7.5744 -1.52136
        CHANNELS 6 Xposition Yposition Zposition Zrotation Xrotation Yrotation
        JOINT rShldr
        {
          OFFSET -5.47506 -0.905672 0.485692
          CHANNELS 6 Xposition Yposition Zposition Zrotation Xrotation Yrotation
          JOINT rForeArm
          {
            OFFSET -11.3069 -0.201091 0.618544
            CHANNELS 6 Xposition Yposition Zposition Zrotation Xrotation Yrotation
            JOINT rHand
            {
              OFFSET -9.61414 -0.254739 3.48553
              CHANNELS 6 Xposition Yposition Zposition Zrotation Xrotation Yrotation
              JOINT rThumb1
              {
                OFFSET 0.176263 -0.07068 1.26622
                CHANNELS 6 Xposition Yposition Zposition Zrotation Xrotation Yrotation
                JOINT rThumb2
                {
                  OFFSET -1.04683 -0.546484 1.82182
                  CHANNELS 6 Xposition Yposition Zposition Zrotation Xrotation Yrotation
                  JOINT rThumb3
                  {
                    OFFSET -0.993472 -0.621916 0.655506
                    CHANNELS 6 Xposition Yposition Zposition Zrotation Xrotation Yrotation
                    End Site
                    {
                      OFFSET -0.996134 -0.66263 0.644615
                    }
                  }
                }
              }
              JOINT rIndex1
              {
                OFFSET -2.64253 0.566363 2.4162
                CHANNELS 6 Xposition Yposition Zposition Zrotation Xrotation Yrotation
                JOINT rIndex2
                {
                  OFFSET -1.39394 -0.635138 0.899356
                  CHANNELS 6 Xposition Yposition Zposition Zrotation Xrotation Yrotation
                  JOINT rIndex3
                  {
                    OFFSET -0.622395 -0.856016 0.402182
                    CHANNELS 6 Xposition Yposition Zposition Zrotation Xrotation Yrotation
                    End Site
                    {
                      OFFSET -0.472476 -0.801802 0.34216
                    }
                  }
                }
              }
              JOINT rMid1
              {
                OFFSET -3.20814 0.514427 1.52547
                CHANNELS 6 Xposition Yposition Zposition Zrotation Xrotation Yrotation
                JOINT rMid2
                {
                  OFFSET -1.56545 -0.497974 0.68919
                  CHANNELS 6 Xposition Yposition Zposition Zrotation Xrotation Yrotation
                  JOINT rMid3
                  {
                    OFFSET -0.679943 -1.17582 0.444246
                    CHANNELS 6 Xposition Yposition Zposition Zrotation Xrotation Yrotation
                    End Site
                    {
                      OFFSET -0.343874 -0.941341 0.267611
                    }
                  }
                }
              }
              JOINT rRing1
              {
                OFFSET -3.47877 0.200518 0.597719
                CHANNELS 6 Xposition Yposition Zposition Zrotation Xrotation Yrotation
                JOINT rRing2
                {
                  OFFSET -1.28208 -0.53155 0.44672
                  CHANNELS 6 Xposition Yposition Zposition Zrotation Xrotation Yrotation
                  JOINT rRing3
                  {
                    OFFSET -0.710288 -0.970167 0.4032
                    CHANNELS 6 Xposition Yposition Zposition Zrotation Xrotation Yrotation
                    End Site
                    {
                      OFFSET -0.403228 -0.950952 0.378354
                    }
                  }
                }
              }
              JOINT rPinky1
              {
                OFFSET -3.42483 -0.278904 -0.240415
                CHANNELS 6 Xposition Yposition Zposition Zrotation Xrotation Yrotation
                JOINT rPinky2
                {
                  OFFSET -1.05787 -0.635999 0.156459
                  CHANNELS 6 Xposition Yposition Zposition Zrotation Xrotation Yrotation
                  JOINT rPinky3
                  {
                    OFFSET -0.42815 -0.754232 0.287187
                    CHANNELS 6 Xposition Yposition Zposition Zrotation Xrotation Yrotation
                    End Site
                    {
                      OFFSET -0.235717 -0.725605 0.279416
                    }
                  }
                }
              }
            }
          }
        }
      }
      JOINT lCollar
      {
        OFFSET 1.4963 7.5744 -1.52136
        CHANNELS 6 Xposition Yposition Zposition Zrotation Xrotation Yrotation
        JOINT lShldr
        {
          OFFSET 5.47506 -0.905672 0.485692
          CHANNELS 6 Xposition Yposition Zposition Zrotation Xrotation Yrotation
          JOINT lForeArm
          {
            OFFSET 11.3069 -0.201091 0.618544
            CHANNELS 6 Xposition Yposition Zposition Zrotation Xrotation Yrotation
            JOINT lHand
            {
              OFFSET 9.61414 -0.254739 3.48553
              CHANNELS 6 Xposition Yposition Zposition Zrotation Xrotation Yrotation
              JOINT lThumb1
              {
                OFFSET -0.176263 -0.07068 1.26622
                CHANNELS 6 Xposition Yposition Zposition Zrotation Xrotation Yrotation
                JOINT lThumb2
                {
                  OFFSET 1.04683 -0.546484 1.82182
                  CHANNELS 6 Xposition Yposition Zposition Zrotation Xrotation Yrotation
                  JOINT lThumb3
                  {
                    OFFSET 0.993472 -0.621916 0.655506
                    CHANNELS 6 Xposition Yposition Zposition Zrotation Xrotation Yrotation
                    End Site
                    {
                      OFFSET 0.996134 -0.66263 0.644615
                    }
                  }
                }
              }
              JOINT lIndex1
              {
                OFFSET 2.64253 0.566363 2.4162
                CHANNELS 6 Xposition Yposition Zposition Zrotation Xrotation Yrotation
                JOINT lIndex2
                {
                  OFFSET 1.39394 -0.635138 0.899356
                  CHANNELS 6 Xposition Yposition Zposition Zrotation Xrotation Yrotation
                  JOINT lIndex3
                  {
                    OFFSET 0.622395 -0.856016 0.402182
                    CHANNELS 6 Xposition Yposition Zposition Zrotation Xrotation Yrotation
                    End Site
                    {
                      OFFSET 0.472476 -0.801802 0.34216
                    }
                  }
                }
              }
              JOINT lMid1
              {
                OFFSET 3.20814 0.514427 1.52547
                CHANNELS 6 Xposition Yposition Zposition Zrotation Xrotation Yrotation
                JOINT lMid2
                {
                  OFFSET 1.56545 -0.497974 0.68919
                  CHANNELS 6 Xposition Yposition Zposition Zrotation Xrotation Yrotation
                  JOINT lMid3
                  {
                    OFFSET 0.679943 -1.17582 0.444246
                    CHANNELS 6 Xposition Yposition Zposition Zrotation Xrotation Yrotation
                    End Site
                    {
                      OFFSET 0.343874 -0.941341 0.267611
                    }
                  }
                }
              }
              JOINT lRing1
              {
                OFFSET 3.47877 0.200518 0.597719
                CHANNELS 6 Xposition Yposition Zposition Zrotation Xrotation Yrotation
                JOINT lRing2
                {
                  OFFSET 1.28208 -0.53155 0.44672
                  CHANNELS 6 Xposition Yposition Zposition Zrotation Xrotation Yrotation
                  JOINT lRing3
                  {
                    OFFSET 0.710288 -0.970167 0.4032
                    CHANNELS 6 Xposition Yposition Zposition Zrotation Xrotation Yrotation
                    End Site
                    {
                      OFFSET 0.403228 -0.950952 0.378354
                    }
                  }
                }
              }
              JOINT lPinky1
              {
                OFFSET 3.42483 -0.278904 -0.240415
                CHANNELS 6 Xposition Yposition Zposition Zrotation Xrotation Yrotation
                JOINT lPinky2
                {
                  OFFSET 1.05787 -0.635999 0.156459
                  CHANNELS 6 Xposition Yposition Zposition Zrotation Xrotation Yrotation
                  JOINT lPinky3
                  {
                    OFFSET 0.42815 -0.754232 0.287187
                    CHANNELS 6 Xposition Yposition Zposition Zrotation Xrotation Yrotation
                    End Site
                    {
                      OFFSET 0.235717 -0.725605 0.279416
                    }
                  }
                }
              }
            }
          }
        }
      }
    }
  }
  JOINT rThigh
  {
    OFFSET -4.17848 -1.02486 0.046356
    CHANNELS 6 Xposition Yposition Zposition Zrotation Xrotation Yrotation
    JOINT rShin
    {
      OFFSET 1.27155 -17.465 -0.237699
      CHANNELS 6 Xposition Yposition Zposition Zrotation Xrotation Yrotation
      JOINT rFoot
      {
        OFFSET 0.529163 -17.3815 -1.19582
        CHANNELS 6 Xposition Yposition Zposition Zrotation Xrotation Yrotation
        JOINT rToe
        {
          OFFSET -0.711591 -4.4863 4.0596
          CHANNELS 6 Xposition Yposition Zposition Zrotation Xrotation Yrotation
          End Site
          {
            OFFSET -0.869915 -1.10655 1.99006
          }
        }
      }
    }
  }
  JOINT lThigh
  {
    OFFSET 4.17848 -1.02486 0.046356
    CHANNELS 6 Xposition Yposition Zposition Zrotation Xrotation Yrotation
    JOINT lShin
    {
      OFFSET -1.27155 -17.465 -0.237699
      CHANNELS 6 Xposition Yposition Zposition Zrotation Xrotation Yrotation
      JOINT lFoot
      {
        OFFSET -0.529163 -17.3815 -1.19582
        CHANNELS 6 Xposition Yposition Zposition Zrotation Xrotation Yrotation
        JOINT lToe
        {
          OFFSET 0.711591 -4.4863 4.0596
          CHANNELS 6 Xposition Yposition Zposition Zrotation Xrotation Yrotation
          End Site
          {
            OFFSET 0.869915 -1.10655 1.99006
          }
        }
      }
    }
  }
}
MOTION
Frames:	4
Frame Time:	0.0333333
1.34511 40.2441 0.0698047 4.84122 -4.77964 -4.14322 8.88178e-016 5.99393 0.287273 7.28882 3.94983 -7.9679 0 6.65865 -0.856112 15.0971 6.81805 -16.4182 3.55271e-015 8.65624 -1.42685 -2.63929 -12.7933 -39.7938 0 3.80999 -0.190247 -1.39919 -5.01399 -33.5234 -1.4963 7.5744 -1.52136 -9.13647 -1.729 -1.45012 -5.47506 -0.905672 0.485692 59.5613 -2.66078 1.44359 -11.3069 -0.201091 0.618544 8.35105 22.337 -3.8476 -9.61414 -0.254739 3.48553 -24.4207 59.8885 23.0143 0.176263 -0.07068 1.26622 2.91696 -2.65901 8.19545 -1.04683 -0.546484 1.82182 -0.883043 0.973767 -2.69653 -0.993472 -0.621916 0.655506 1.40996 -1.38184 4.08001 -2.64253 0.566363 2.4162 -4.507 -2.14979 7.5532 -1.39394 -0.635138 0.899356 -2.59847 -0.701613 0.367201 -0.622395 -0.856016 0.402182 -4.1621 -1.13132 0.572555 -3.20814 0.514427 1.52547 -7.49515 -2.34792 0.77548 -1.56545 -0.497974 0.68919 -7.47211 -2.36359 0.912874 -0.679943 -1.17582 0.444246 -7.47005 -2.36309 0.912547 -3.47877 0.200518 0.597719 -12.0634 -4.3096 1.80613 -1.28208 -0.53155 0.44672 -12.0496 -4.39239 1.75639 -0.710288 -0.970167 0.4032 -12.0455 -4.39071 1.75651 -3.42483 -0.278904 -0.240415 -24.3914 0.0475086 -5.50296 -1.05787 -0.635999 0.156459 -11.9662 -4.68647 1.54581 -0.42815 -0.754232 0.287187 -11.9665 -4.66684 1.53833 1.4963 7.5744 -1.52136 11.7396 -1.76377 -2.01917 5.47506 -0.905672 0.485692 -87.6671 -18.2339 52.5538 11.3069 -0.201091 0.618544 -18.6607 -21.0998 -27.278 9.61414 -0.254739 3.48553 -2.20327 52.1871 9.64584 -0.176263 -0.07068 1.26622 -5.95744 -1.19175 -10.4642 1.04683 -0.546484 1.82182 1.57213e-005 -2.40525e-005 1.14078e-005 0.993472 -0.621916 0.655506 -3.70255 -0.873561 -6.53346 2.64253 0.566363 2.4162 6.2675 -3.1026 -9.74108 1.39394 -0.635138 0.899356 5.9373 -2.12273 -2.28271 0.622395 -0.856016 0.402182 7.37738 -2.67684 -2.80704 3.20814 0.514427 1.52547 11.7204 -4.95761 -4.14522 1.56545 -0.497974 0.68919 11.6788 -4.96411 -4.2823 0.679943 -1.17582 0.444246 11.6704 -4.96019 -4.27975 3.47877 0.200518 0.597719 11.3057 -5.22301 -4.78061 1.28208 -0.53155 0.44672 11.3014 -5.31827 -4.74776 0.710288 -0.970167 0.4032 11.2967 -5.31577 -4.74627 3.42483 -0.278904 -0.240415 17.3301 -0.570229 4.29193 1.05787 -0.635999 0.156459 11.2109 -5.64759 -4.56746 0.42815 -0.754232 0.287187 11.2179 -5.65152 -4.56987 -4.17848 -1.02486 0.046356 -0.171786 -21.7286 19.0365 1.27155 -17.465 -0.237699 13.5491 55.738 -15.8528 0.529163 -17.3815 -1.19582 -0.213972 -32.6713 -16.1498 -0.711591 -4.4863 4.0596 0.922596 6.6279 -0.231614 4.17848 -1.02486 0.046356 2.84365 -33.6594 -10.1586 -1.27155 -17.465 -0.237699 -2.21549 36.6748 -12.1758 -0.529163 -17.3815 -1.19582 -8.96444 -4.05711 -14.035 0.711591 -4.4863 4.0596 1.41658 -10.9677 0.690452 
1.35333 40.244 0.0802099 4.79605 -4.76006 -4.00058 0 5.99393 0.287273 7.34357 3.93415 -7.98272 0 6.65865 -0.856112 15.2044 6.77691 -16.448 3.55271e-015 8.65624 -1.42685 -2.68332 -12.7385 -40.0037 1.77636e-015 3.80999 -0.190247 -1.29909 -4.8 -33.5631 -1.4963 7.5744 -1.52136 -9.29613 -1.73351 -1.53875 -5.47506 -0.905672 0.485692 59.6368 -2.62702 1.46944 -11.3069 -0.201091 0.618544 8.25233 22.3943 -3.95832 -9.61414 -0.254739 3.48553 -24.6374 59.8406 23.216 0.176263 -0.07068 1.26622 2.91698 -2.65908 8.19545 -1.04683 -0.546484 1.82182 -0.883056 0.973785 -2.69652 -0.993472 -0.621916 0.655506 1.40995 -1.38181 4.08001 -2.64253 0.566363 2.4162 -4.50703 -2.14974 7.5532 -1.39394 -0.635138 0.899356 -2.59847 -0.701619 0.367206 -0.622395 -0.856016 0.402182 -4.16206 -1.13143 0.572494 -3.20814 0.514427 1.52547 -7.54463 -2.3644 0.783383 -1.56545 -0.497974 0.68919 -7.52248 -2.37994 0.917983 -0.679943 -1.17582 0.444246 -7.51882 -2.37889 0.917486 -3.47877 0.200518 0.597719 -12.1099 -4.32904 1.8101 -1.28208 -0.53155 0.44672 -12.0988 -4.41104 1.76166 -0.710288 -0.970167 0.4032 -12.0956 -4.40977 1.7619 -3.42483 -0.278904 -0.240415 -24.4413 0.026292 -5.50524 -1.05787 -0.635999 0.156459 -12.0151 -4.70627 1.55011 -0.42815 -0.754232 0.287187 -12.0197 -4.68761 1.5427 1.4963 7.5744 -1.52136 11.5156 -1.76545 -2.22202 5.47506 -0.905672 0.485692 -87.6033 -18.3854 52.6189 11.3069 -0.201091 0.618544 -18.7515 -21.2331 -27.3974 9.61414 -0.254739 3.48553 -2.07006 52.5497 9.47031 -0.176263 -0.07068 1.26622 -5.95749 -1.19178 -10.4642 1.04683 -0.546484 1.82182 -1.46478e-005 -2.97076e-005 8.22942e-006 0.993472 -0.621916 0.655506 -3.70255 -0.873556 -6.53346 2.64253 0.566363 2.4162 6.28615 -3.10779 -9.75023 1.39394 -0.635138 0.899356 5.95641 -2.12998 -2.28974 0.622395 -0.856016 0.402182 7.39663 -2.68435 -2.81396 3.20814 0.514427 1.52547 11.7617 -4.97735 -4.16167 1.56545 -0.497974 0.68919 11.7235 -4.98502 -4.29694 0.679943 -1.17582 0.444246 11.7163 -4.9816 -4.29478 3.47877 0.200518 0.597719 11.3504 -5.24833 -4.79685 1.28208 -0.53155 0.44672 11.3458 -5.34131 -4.76462 0.710288 -0.970167 0.4032 11.3404 -5.33846 -4.76287 3.42483 -0.278904 -0.240415 17.372 -0.595361 4.2813 1.05787 -0.635999 0.156459 11.2552 -5.67201 -4.58358 0.42815 -0.754232 0.287187 11.2603 -5.67491 -4.58533 -4.17848 -1.02486 0.046356 -0.225128 -21.6821 18.8164 1.27155 -17.465 -0.237699 13.5108 55.7052 -15.8328 0.529163 -17.3815 -1.19582 -0.196435 -32.7171 -16.0711 -0.711591 -4.4863 4.0596 0.930043 6.67845 -0.233964 4.17848 -1.02486 0.046356 2.91156 -34.0103 -9.96671 -1.27155 -17.465 -0.237699 -2.27621 37.0171 -12.1478 -0.529163 -17.3815 -1.19582 -8.88584 -4.01425 -14.3751 0.711591 -4.4863 4.0596 1.41661 -10.9678 0.69047 
1.36805 40.2459 0.10283 4.78662 -4.74267 -3.99118 -8.88178e-016 5.99393 0.287273 7.35789 3.93304 -7.97361 -1.77636e-015 6.65865 -0.856112 15.2323 6.77385 -16.4303 0 8.65624 -1.42685 -2.71211 -12.6701 -40.1651 3.55271e-015 3.80999 -0.190247 -1.10856 -4.51998 -33.5402 -1.4963 7.5744 -1.52136 -9.33914 -1.73402 -1.5432 -5.47506 -0.905672 0.485692 59.6464 -2.62797 1.45312 -11.3069 -0.201091 0.618544 8.18966 22.3898 -4.02564 -9.61414 -0.254739 3.48553 -24.6673 59.7308 23.3358 0.176263 -0.07068 1.26622 2.91699 -2.65919 8.19544 -1.04683 -0.546484 1.82182 -0.883034 0.973785 -2.6965 -0.993472 -0.621916 0.655506 1.40994 -1.38179 4.08004 -2.64253 0.566363 2.4162 -4.50706 -2.14967 7.5532 -1.39394 -0.635138 0.899356 -2.59845 -0.701611 0.367204 -0.622395 -0.856016 0.402182 -4.16206 -1.13142 0.572519 -3.20814 0.514427 1.52547 -7.5941 -2.38087 0.791285 -1.56545 -0.497974 0.68919 -7.57282 -2.39628 0.923103 -0.679943 -1.17582 0.444246 -7.57121 -2.39591 0.922784 -3.47877 0.200518 0.597719 -12.1564 -4.34848 1.81405 -1.28208 -0.53155 0.44672 -12.1479 -4.4297 1.76694 -0.710288 -0.970167 0.4032 -12.1458 -4.42881 1.76725 -3.42483 -0.278904 -0.240415 -24.4912 0.00508718 -5.50752 -1.05787 -0.635999 0.156459 -12.064 -4.72605 1.55441 -0.42815 -0.754232 0.287187 -12.0728 -4.70836 1.54708 1.4963 7.5744 -1.52136 11.4987 -1.76568 -2.24642 5.47506 -0.905672 0.485692 -87.6197 -18.3974 52.5988 11.3069 -0.201091 0.618544 -18.7986 -21.2981 -27.3002 9.61414 -0.254739 3.48553 -2.0363 52.8642 9.3321 -0.176263 -0.07068 1.26622 -5.9575 -1.19185 -10.4643 1.04683 -0.546484 1.82182 -6.25852e-007 -3.63413e-005 2.61573e-005 0.993472 -0.621916 0.655506 -3.70254 -0.873553 -6.53345 2.64253 0.566363 2.4162 6.30482 -3.11302 -9.75935 1.39394 -0.635138 0.899356 5.97553 -2.13724 -2.29677 0.622395 -0.856016 0.402182 7.4159 -2.69186 -2.82089 3.20814 0.514427 1.52547 11.8085 -4.99975 -4.18029 1.56545 -0.497974 0.68919 11.7683 -5.00593 -4.31158 0.679943 -1.17582 0.444246 11.7622 -5.00303 -4.30977 3.47877 0.200518 0.597719 11.3952 -5.27368 -4.81306 1.28208 -0.53155 0.44672 11.3902 -5.36435 -4.78147 0.710288 -0.970167 0.4032 11.3841 -5.36115 -4.77947 3.42483 -0.278904 -0.240415 17.414 -0.620508 4.2707 1.05787 -0.635999 0.156459 11.2995 -5.69641 -4.59967 0.42815 -0.754232 0.287187 11.3059 -5.70004 -4.6019 -4.17848 -1.02486 0.046356 -0.250782 -21.6472 18.7909 1.27155 -17.465 -0.237699 13.4908 55.6812 -15.8154 0.529163 -17.3815 -1.19582 -0.174336 -32.7498 -16.072 -0.711591 -4.4863 4.0596 0.930308 6.67924 -0.233963 4.17848 -1.02486 0.046356 2.81998 -33.6953 -10.1374 -1.27155 -17.465 -0.237699 -2.20273 36.7515 -12.1576 -0.529163 -17.3815 -1.19582 -8.87298 -4.0845 -14.2686 0.711591 -4.4863 4.0596 1.41663 -10.968 0.690484 
1.38515 40.2475 0.120521 4.77955 -4.72954 -3.99296 0 5.99393 0.287273 7.3775 3.94369 -7.96491 0 6.65865 -0.856112 15.2727 6.7933 -16.4156 0 8.65624 -1.42685 -2.70724 -12.6885 -40.2516 0 3.80999 -0.190247 -0.928859 -4.36259 -33.5037 -1.4963 7.5744 -1.52136 -9.39542 -1.73471 -1.55061 -5.47506 -0.905672 0.485692 59.6583 -2.62964 1.45263 -11.3069 -0.201091 0.618544 8.12946 22.3702 -4.0684 -9.61414 -0.254739 3.48553 -24.9123 59.7503 23.5811 0.176263 -0.07068 1.26622 2.91694 -2.65898 8.19546 -1.04683 -0.546484 1.82182 -0.883054 0.973793 -2.69649 -0.993472 -0.621916 0.655506 1.40993 -1.38175 4.08005 -2.64253 0.566363 2.4162 -4.507 -2.14984 7.5532 -1.39394 -0.635138 0.899356 -2.59846 -0.701592 0.367206 -0.622395 -0.856016 0.402182 -4.16208 -1.13142 0.572505 -3.20814 0.514427 1.52547 -7.64356 -2.39738 0.799176 -1.56545 -0.497974 0.68919 -7.62604 -2.41356 0.92845 -0.679943 -1.17582 0.444246 -7.6236 -2.41292 0.928074 -3.47877 0.200518 0.597719 -12.2085 -4.37028 1.81846 -1.28208 -0.53155 0.44672 -12.1996 -4.44935 1.77245 -0.710288 -0.970167 0.4032 -12.1959 -4.44786 1.77262 -3.42483 -0.278904 -0.240415 -24.5411 -0.0161103 -5.5098 -1.05787 -0.635999 0.156459 -12.1129 -4.74586 1.55866 -0.42815 -0.754232 0.287187 -12.1259 -4.72912 1.55143 1.4963 7.5744 -1.52136 11.4701 -1.76583 -2.26635 5.47506 -0.905672 0.485692 -87.7012 -18.3987 52.5287 11.3069 -0.201091 0.618544 -18.7546 -21.3874 -27.1955 9.61414 -0.254739 3.48553 -2.10474 52.8169 9.3415 -0.176263 -0.07068 1.26622 -5.95743 -1.19173 -10.4642 1.04683 -0.546484 1.82182 -2.48196e-005 -4.19013e-005 3.8459e-005 0.993472 -0.621916 0.655506 -3.70255 -0.873559 -6.53345 2.64253 0.566363 2.4162 6.32348 -3.11821 -9.76849 1.39394 -0.635138 0.899356 5.99464 -2.1445 -2.30379 0.622395 -0.856016 0.402182 7.43514 -2.69937 -2.82781 3.20814 0.514427 1.52547 11.8554 -5.02219 -4.19889 1.56545 -0.497974 0.68919 11.8156 -5.02804 -4.32703 0.679943 -1.17582 0.444246 11.808 -5.02447 -4.32474 3.47877 0.200518 0.597719 11.4399 -5.29903 -4.82925 1.28208 -0.53155 0.44672 11.4346 -5.38741 -4.7983 0.710288 -0.970167 0.4032 11.4278 -5.38386 -4.79604 3.42483 -0.278904 -0.240415 17.462 -0.64933 4.25859 1.05787 -0.635999 0.156459 11.3438 -5.72083 -4.61577 0.42815 -0.754232 0.287187 11.3515 -5.72519 -4.61844 -4.17848 -1.02486 0.046356 -0.288623 -21.6295 18.764 1.27155 -17.465 -0.237699 13.4827 55.6708 -15.8005 0.529163 -17.3815 -1.19582 -0.141384 -32.774 -16.0438 -0.711591 -4.4863 4.0596 0.930584 6.68005 -0.23396 4.17848 -1.02486 0.046356 2.78377 -33.9742 -10.1621 -1.27155 -17.465 -0.237699 -2.26434 37.0849 -12.1548 -0.529163 -17.3815 -1.19582 -8.82363 -4.14503 -14.2234 0.711591 -4.4863 4.0596 1.41665 -10.9682 0.690503 
